<svg xmlns="http://www.w3.org/2000/svg" width="1200" height="630" viewBox="0 0 1200 630">
  <defs>
    <linearGradient id="bg" x1="0%" y1="0%" x2="100%" y2="100%">
      <stop offset="0%" style="stop-color:#0f172a"/>
      <stop offset="100%" style="stop-color:#0a1a14"/>
    </linearGradient>
    <linearGradient id="accent" x1="0%" y1="0%" x2="100%" y2="0%">
      <stop offset="0%" style="stop-color:#10b981"/>
      <stop offset="100%" style="stop-color:#06b6d4"/>
    </linearGradient>
  </defs>
  <rect width="1200" height="630" fill="url(#bg)"/>
  <!-- Grid lines -->
  <line x1="0" y1="105" x2="1200" y2="105" stroke="#1e293b" stroke-width="1"/>
  <line x1="0" y1="210" x2="1200" y2="210" stroke="#1e293b" stroke-width="1"/>
  <line x1="0" y1="315" x2="1200" y2="315" stroke="#1e293b" stroke-width="1"/>
  <line x1="0" y1="420" x2="1200" y2="420" stroke="#1e293b" stroke-width="1"/>
  <line x1="0" y1="525" x2="1200" y2="525" stroke="#1e293b" stroke-width="1"/>
  <line x1="240" y1="0" x2="240" y2="630" stroke="#1e293b" stroke-width="1"/>
  <line x1="480" y1="0" x2="480" y2="630" stroke="#1e293b" stroke-width="1"/>
  <line x1="720" y1="0" x2="720" y2="630" stroke="#1e293b" stroke-width="1"/>
  <line x1="960" y1="0" x2="960" y2="630" stroke="#1e293b" stroke-width="1"/>
  <!-- Shield icon (right side) -->
  <path d="M 1000 160 L 1130 200 L 1130 350 Q 1130 450 1000 490 Q 870 450 870 350 L 870 200 Z" fill="#10b981" opacity="0.06"/>
  <path d="M 1000 180 L 1110 214 L 1110 348 Q 1110 432 1000 468 Q 890 432 890 348 L 890 214 Z" fill="none" stroke="#10b981" stroke-width="1.5" opacity="0.2"/>
  <!-- Checkmark inside shield -->
  <polyline points="930,330 980,380 1080,270" stroke="#10b981" stroke-width="3" fill="none" opacity="0.3"/>
  <!-- Left accent bar -->
  <rect x="0" y="0" width="6" height="630" fill="url(#accent)"/>
  <!-- Bottom accent bar -->
  <rect x="0" y="614" width="1200" height="4" fill="url(#accent)" opacity="0.5"/>
  <!-- Category tag -->
  <rect x="60" y="60" width="200" height="32" rx="16" fill="#10b981" opacity="0.12"/>
  <text x="80" y="81" font-family="system-ui,-apple-system,sans-serif" font-size="13" font-weight="600" fill="#34d399" letter-spacing="1">POLICY &amp; COMPLIANCE</text>
  <!-- Title -->
  <text x="60" y="200" font-family="system-ui,-apple-system,sans-serif" font-size="52" font-weight="800" fill="#ffffff">NIST 2026 Update:</text>
  <text x="60" y="262" font-family="system-ui,-apple-system,sans-serif" font-size="52" font-weight="800" fill="#ffffff">Securing AI in Critical</text>
  <text x="60" y="324" font-family="system-ui,-apple-system,sans-serif" font-size="52" font-weight="800" fill="#34d399">Infrastructure</text>
  <!-- Subtitle -->
  <text x="60" y="390" font-family="system-ui,-apple-system,sans-serif" font-size="21" fill="#94a3b8">AI Risk Management Framework for power plants, water systems &amp; healthcare</text>
  <!-- Author -->
  <text x="60" y="540" font-family="system-ui,-apple-system,sans-serif" font-size="16" fill="#64748b">By</text>
  <text x="82" y="540" font-family="system-ui,-apple-system,sans-serif" font-size="16" font-weight="600" fill="#34d399">Sentinel</text>
  <!-- Branding -->
  <text x="60" y="575" font-family="system-ui,-apple-system,sans-serif" font-size="20" font-weight="700" fill="#60a5fa">77 Security</text>
  <text x="170" y="575" font-family="system-ui,-apple-system,sans-serif" font-size="16" fill="#475569"> · AI Security Research</text>
</svg>
